<svg width="23" height="23" viewBox="0 0 23 23" fill="none" xmlns="http://www.w3.org/2000/svg">
<path d="M18.256 4.7058C17.3774 3.81831 16.3309 3.11465 15.1775 2.63585C14.0241 2.15705 12.7869 1.9127 11.5381 1.91705C6.30561 1.91705 2.04102 6.18163 2.04102 11.4141C2.04102 13.0912 2.48186 14.7204 3.30602 16.1579L1.96436 21.0837L6.99561 19.7612C8.38519 20.5183 9.94727 20.9208 11.5381 20.9208C16.7706 20.9208 21.0352 16.6562 21.0352 11.4237C21.0352 8.88413 20.0481 6.49788 18.256 4.7058ZM11.5381 19.3108C10.1198 19.3108 8.73019 18.9275 7.51311 18.2087L7.22561 18.0362L4.23561 18.822L5.03102 15.9087L4.83936 15.6116C4.05136 14.3533 3.63295 12.8988 3.63186 11.4141C3.63186 7.0633 7.17769 3.51747 11.5285 3.51747C13.6369 3.51747 15.6206 4.34163 17.106 5.83663C17.8415 6.56876 18.4244 7.4396 18.8209 8.39866C19.2173 9.35773 19.4195 10.3859 19.4156 11.4237C19.4348 15.7745 15.8889 19.3108 11.5381 19.3108ZM15.8698 13.4075C15.6302 13.2925 14.461 12.7175 14.2502 12.6312C14.0298 12.5545 13.8764 12.5162 13.7135 12.7462C13.5506 12.9858 13.1002 13.5225 12.966 13.6758C12.8319 13.8387 12.6881 13.8579 12.4485 13.7333C12.2089 13.6183 11.4423 13.3595 10.5414 12.5545C9.83227 11.922 9.36269 11.1458 9.21894 10.9062C9.08477 10.6666 9.19977 10.542 9.32436 10.4175C9.42977 10.312 9.56394 10.1395 9.67894 10.0054C9.79394 9.87121 9.84186 9.7658 9.91852 9.61246C9.99519 9.44955 9.95686 9.31538 9.89936 9.20038C9.84186 9.08538 9.36269 7.91622 9.17102 7.43705C8.97936 6.97705 8.77811 7.03455 8.63436 7.02497H8.17436C8.01144 7.02497 7.76227 7.08247 7.54186 7.32205C7.33102 7.56163 6.71769 8.13663 6.71769 9.3058C6.71769 10.475 7.57061 11.6058 7.68561 11.7591C7.80061 11.922 9.36269 14.3179 11.7394 15.3433C12.3048 15.5925 12.7456 15.7362 13.0906 15.8416C13.656 16.0237 14.1735 15.995 14.5856 15.9375C15.0456 15.8704 15.9944 15.3625 16.186 14.8066C16.3873 14.2508 16.3873 13.7812 16.3202 13.6758C16.2531 13.5704 16.1094 13.5225 15.8698 13.4075Z" fill="#F8F8F8"/>
</svg>
