<svg width="21" height="22" viewBox="0 0 21 22" fill="none" xmlns="http://www.w3.org/2000/svg">
<path d="M0 0.775352C0 0.570101 0.0778484 0.373258 0.216421 0.228124C0.354992 0.0829907 0.542936 0.00145527 0.738907 0.00145527C0.934875 0.00145527 1.12282 0.0829907 1.26139 0.228124C1.39996 0.373258 1.47781 0.570101 1.47781 0.775352V4.18359C2.76061 2.6623 4.38096 1.49479 6.19609 0.783921C8.01122 0.0730528 9.96541 -0.159353 11.8865 0.107179C13.8076 0.373712 15.6366 1.131 17.2124 2.31233C18.7882 3.49365 20.0625 5.06276 20.9228 6.88139C21.01 7.0653 21.0239 7.27795 20.9614 7.47258C20.8989 7.6672 20.7652 7.82785 20.5896 7.91919C20.414 8.01053 20.211 8.02506 20.0251 7.95961C19.8393 7.89415 19.6859 7.75407 19.5987 7.57016C18.8012 5.88379 17.5977 4.44424 16.1071 3.39343C14.6165 2.34263 12.8901 1.71685 11.0982 1.57779C9.30627 1.43874 7.51069 1.79121 5.88847 2.60045C4.26625 3.4097 2.87341 4.64778 1.84726 6.19263H6.65015C6.84612 6.19263 7.03406 6.27416 7.17263 6.41929C7.3112 6.56443 7.38905 6.76127 7.38905 6.96652C7.38905 7.17177 7.3112 7.36862 7.17263 7.51375C7.03406 7.65888 6.84612 7.74042 6.65015 7.74042H0.738907C0.542936 7.74042 0.354992 7.65888 0.216421 7.51375C0.0778484 7.36862 0 7.17177 0 6.96652V0.775352Z" fill="#D7D7D7"/>
<path d="M9.162 19.022V20H4.452V19.022H6.252V13.61C6.252 13.418 6.258 13.222 6.27 13.022L4.884 14.192C4.824 14.24 4.762 14.272 4.698 14.288C4.638 14.3 4.58 14.3 4.524 14.288C4.472 14.276 4.424 14.258 4.38 14.234C4.34 14.206 4.308 14.176 4.284 14.144L3.882 13.58L6.486 11.342H7.536V19.022H9.162ZM16.5909 15.68C16.5909 16.436 16.5089 17.09 16.3449 17.642C16.1849 18.194 15.9629 18.652 15.6789 19.016C15.3949 19.38 15.0609 19.65 14.6769 19.826C14.2929 20.002 13.8789 20.09 13.4349 20.09C12.9909 20.09 12.5769 20.002 12.1929 19.826C11.8089 19.65 11.4749 19.38 11.1909 19.016C10.9109 18.652 10.6909 18.194 10.5309 17.642C10.3709 17.09 10.2909 16.436 10.2909 15.68C10.2909 14.924 10.3709 14.27 10.5309 13.718C10.6909 13.162 10.9109 12.704 11.1909 12.344C11.4749 11.98 11.8089 11.71 12.1929 11.534C12.5769 11.354 12.9909 11.264 13.4349 11.264C13.8789 11.264 14.2929 11.354 14.6769 11.534C15.0609 11.71 15.3949 11.98 15.6789 12.344C15.9629 12.704 16.1849 13.162 16.3449 13.718C16.5089 14.27 16.5909 14.924 16.5909 15.68ZM15.2589 15.68C15.2589 15.04 15.2069 14.508 15.1029 14.084C15.0029 13.656 14.8689 13.314 14.7009 13.058C14.5329 12.802 14.3389 12.62 14.1189 12.512C13.8989 12.404 13.6709 12.35 13.4349 12.35C13.1949 12.35 12.9649 12.404 12.7449 12.512C12.5289 12.62 12.3369 12.802 12.1689 13.058C12.0009 13.314 11.8669 13.656 11.7669 14.084C11.6669 14.508 11.6169 15.04 11.6169 15.68C11.6169 16.32 11.6669 16.854 11.7669 17.282C11.8669 17.706 12.0009 18.046 12.1689 18.302C12.3369 18.558 12.5289 18.74 12.7449 18.848C12.9649 18.956 13.1949 19.01 13.4349 19.01C13.6709 19.01 13.8989 18.956 14.1189 18.848C14.3389 18.74 14.5329 18.558 14.7009 18.302C14.8689 18.046 15.0029 17.706 15.1029 17.282C15.2069 16.854 15.2589 16.32 15.2589 15.68Z" fill="#D6D7D7"/>
</svg>
